<svg version="1.1" id="Layer_1" xmlns="http://www.w3.org/2000/svg" xmlns:xlink="http://www.w3.org/1999/xlink" x="0px" y="0px"
	 width="100%" viewBox="0 0 225 225" enable-background="new 0 0 225 225" xml:space="preserve">
<path fill="#FCFEFE" opacity="1.000000" stroke="none" 
	d="
M1.000000,140.000000 
	C1.000000,133.978851 1.000000,127.957695 1.298624,121.486526 
	C2.323638,121.346909 3.050028,121.657295 3.852873,122.344330 
	C3.979988,123.741806 4.030646,124.762634 4.042461,126.194351 
	C3.602854,127.478622 3.231355,128.366882 2.796443,129.222931 
	C0.481090,133.780350 1.967688,137.920929 6.819298,140.304260 
	C6.991824,141.025513 7.030067,141.452484 6.924235,142.200592 
	C5.509662,144.861389 5.959567,146.447586 8.893669,147.353821 
	C9.711446,149.552185 10.171819,151.518982 11.089518,153.242233 
	C14.290195,159.252472 17.649063,165.178497 21.042770,171.461975 
	C27.874361,184.211075 37.377956,194.087677 49.161106,202.316833 
	C54.826859,205.757614 60.310780,208.914886 66.046181,212.329895 
	C76.210388,215.663467 86.123116,218.739334 96.455589,221.910187 
	C105.992920,222.227783 115.110497,222.450378 124.643730,222.665054 
	C127.433006,222.232300 129.806625,221.807480 132.602600,221.367447 
	C152.195236,218.365784 169.047607,210.223267 183.683212,197.707855 
	C188.153885,193.884827 191.488617,188.733414 195.658386,184.074234 
	C203.514053,177.905075 208.408951,169.982483 212.346039,160.963348 
	C214.642303,155.470901 216.656967,150.199295 218.836136,144.581085 
	C219.328094,142.486938 219.655518,140.739395 220.112823,138.594696 
	C220.247009,137.059448 220.089859,135.893005 220.283783,134.788193 
	C221.091003,130.189209 222.003937,125.608772 222.973831,120.691711 
	C223.019348,119.910042 222.969131,119.458206 223.002014,118.544189 
	C222.764389,112.340698 222.443680,106.599373 222.155487,100.885406 
	C222.188004,100.912758 222.229462,100.838562 222.263885,100.425461 
	C221.918045,98.133553 221.537796,96.254738 221.260864,93.998413 
	C220.288452,89.400589 219.212692,85.180283 218.127869,80.603828 
	C217.808731,79.633179 217.498657,79.018677 217.226868,78.159348 
	C217.225067,77.576294 217.096878,77.275658 216.878571,76.643257 
	C215.227966,72.567764 213.579361,68.861603 211.955170,65.114632 
	C211.979584,65.073822 211.892029,65.036652 211.878952,64.723648 
	C211.269897,63.574818 210.673920,62.738987 210.051193,61.938065 
	C210.024445,61.972973 210.111481,61.960278 210.094284,61.657959 
	C209.731689,60.882782 209.386292,60.409916 209.018768,59.962791 
	C208.996658,59.988537 209.060806,59.966454 209.014618,59.619949 
	C207.323990,56.814182 205.679520,54.354916 203.946747,51.569420 
	C200.827621,47.510349 197.796844,43.777515 194.657684,39.739159 
	C184.910019,29.229862 174.236023,20.433987 160.946320,14.619270 
	C156.155197,12.475439 151.583481,10.610926 147.014404,8.421514 
	C148.800949,3.963349 143.102081,4.065696 143.000000,1.000000 
	C170.646942,1.000000 198.293884,1.000000 225.970413,1.000000 
	C225.970413,75.926796 225.970413,150.853607 225.970413,225.890198 
	C151.000076,225.890198 76.000069,225.890198 1.000027,225.885284 
	C1.000000,199.232681 1.000000,172.584991 1.359969,145.400726 
	C3.460517,142.949600 4.090820,141.199417 1.000000,140.000000 
z"/>
<path fill="#FDFEFE" opacity="1.000000" stroke="none" 
	d="
M1.000000,81.000000 
	C1.000000,54.406445 1.000000,27.812887 1.000000,1.000000 
	C27.353823,1.000000 53.708252,1.000000 80.581482,1.333676 
	C82.066856,1.444901 83.033424,1.222451 84.000000,1.000000 
	C84.750000,1.000000 85.500000,1.000000 86.619339,1.355236 
	C85.793037,3.280495 84.611794,4.861817 83.393845,6.414346 
	C82.974609,6.948756 82.463791,7.411324 81.682030,8.105124 
	C74.234291,11.509560 67.099335,14.715585 59.618565,17.979958 
	C53.373638,22.302055 47.474522,26.565802 41.280067,30.959797 
	C34.508972,38.825550 28.033209,46.561054 21.525681,54.372063 
	C21.493916,54.447567 21.478672,54.610687 21.223530,54.692600 
	C20.651758,55.212936 20.335127,55.651360 19.754839,56.298889 
	C15.292835,66.337227 11.094489,76.166451 6.503701,85.996201 
	C4.823450,86.367828 3.535640,86.738922 2.247830,87.110016 
	C3.439902,88.399567 4.631974,89.689117 5.840526,91.324829 
	C5.700799,92.099884 5.544591,92.528786 5.078011,92.985046 
	C3.511760,93.674950 2.255881,94.337479 1.000001,95.000000 
	C1.000000,91.638710 1.000000,88.277428 1.249958,84.274765 
	C1.333277,82.755592 1.166638,81.877800 1.000000,81.000000 
z"/>
<path fill="#27C2F2" opacity="1.000000" stroke="none" 
	d="
M6.896142,85.995682 
	C11.094489,76.166451 15.292835,66.337227 19.753622,56.661224 
	C20.075550,57.906548 20.135040,58.998642 20.194529,60.090733 
	C20.491039,60.099403 20.787548,60.108074 21.084057,60.116745 
	C21.215595,58.281391 21.347134,56.446041 21.478672,54.610687 
	C21.478672,54.610687 21.493916,54.447567 21.834110,54.663109 
	C25.635382,59.171612 25.782372,64.579918 25.837837,69.477898 
	C26.166069,98.461533 26.111441,127.451599 25.896767,156.437363 
	C25.858093,161.659103 25.205082,167.121506 20.947809,171.136520 
	C17.649063,165.178497 14.290195,159.252472 11.089518,153.242233 
	C10.171819,151.518982 9.711446,149.552185 8.909763,147.007370 
	C8.208200,144.838257 7.638256,143.358856 7.068311,141.879440 
	C7.030067,141.452484 6.991824,141.025513 6.844407,139.988586 
	C6.462516,138.583389 6.189800,137.788162 5.945714,136.659210 
	C5.902493,135.887848 5.830641,135.450226 5.767205,134.619659 
	C5.210849,131.412308 4.646078,128.597885 4.081306,125.783470 
	C4.030646,124.762634 3.979988,123.741806 3.918452,121.904930 
	C3.826725,118.722527 3.745874,116.356171 3.741811,113.592972 
	C3.752964,111.432358 3.867682,109.630005 3.504038,107.929977 
	C3.404111,107.462814 1.873898,107.301605 1.000000,107.000000 
	C1.000000,106.555557 1.000000,106.111107 1.296839,105.752197 
	C2.393702,105.114609 3.734035,104.497040 3.899513,103.649956 
	C4.588411,100.123489 4.923506,96.527908 5.388384,92.957680 
	C5.544591,92.528786 5.700799,92.099884 5.958867,90.975693 
	C6.339199,88.852158 6.617670,87.423920 6.896142,85.995682 
z"/>
<path fill="#F3F9FA" opacity="1.000000" stroke="none" 
	d="
M81.994812,7.906711 
	C82.463791,7.411324 82.974609,6.948756 83.393845,6.414346 
	C84.611794,4.861817 85.793037,3.280495 86.994339,1.355236 
	C105.354225,1.000000 123.708458,1.000000 142.531342,1.000000 
	C143.102081,4.065696 148.800949,3.963349 146.634918,8.438687 
	C143.238297,8.014944 140.223801,7.249129 136.867462,6.308187 
	C123.408546,3.571323 110.244377,2.875598 96.609634,5.088526 
	C93.145943,5.753903 90.078255,6.466861 86.646034,7.183297 
	C84.852608,7.426754 83.423714,7.666731 81.994812,7.906711 
z"/>
<path fill="#F5FBFB" opacity="1.000000" stroke="none" 
	d="
M5.078012,92.985046 
	C4.923506,96.527908 4.588411,100.123489 3.899513,103.649956 
	C3.734035,104.497040 2.393702,105.114609 1.296839,105.418869 
	C1.000000,101.969406 1.000000,98.938812 1.000001,95.454117 
	C2.255881,94.337479 3.511760,93.674950 5.078012,92.985046 
z"/>
<path fill="#F5FBFB" opacity="1.000000" stroke="none" 
	d="
M3.665024,113.989807 
	C3.745874,116.356171 3.826725,118.722527 3.841997,121.528290 
	C3.050028,121.657295 2.323638,121.346909 1.298624,121.018257 
	C1.000000,118.958336 1.000000,116.916664 1.333290,114.437935 
	C2.332727,113.997177 2.998876,113.993492 3.665024,113.989807 
z"/>
<path fill="#FCFEFE" opacity="1.000000" stroke="none" 
	d="
M3.741811,113.592972 
	C2.998876,113.993492 2.332727,113.997177 1.333290,114.000435 
	C1.000000,111.958336 1.000000,109.916664 1.000000,107.437500 
	C1.873898,107.301605 3.404111,107.462814 3.504038,107.929977 
	C3.867682,109.630005 3.752964,111.432358 3.741811,113.592972 
z"/>
<path fill="#F5FBFB" opacity="1.000000" stroke="none" 
	d="
M1.000000,140.416656 
	C4.090820,141.199417 3.460517,142.949600 1.359969,144.932068 
	C1.000000,143.611115 1.000000,142.222214 1.000000,140.416656 
z"/>
<path fill="#F3F9FA" opacity="1.000000" stroke="none" 
	d="
M83.625000,1.000000 
	C83.033424,1.222451 82.066856,1.444901 81.050140,1.333676 
	C81.750000,1.000000 82.500000,1.000000 83.625000,1.000000 
z"/>
<path fill="#F5FBFB" opacity="1.000000" stroke="none" 
	d="
M1.000000,81.375000 
	C1.166638,81.877800 1.333277,82.755592 1.249958,83.816696 
	C1.000000,83.250000 1.000000,82.500000 1.000000,81.375000 
z"/>
<path fill="#1CBDF2" opacity="1.000000" stroke="none" 
	d="
M21.042772,171.461975 
	C25.205082,167.121506 25.858093,161.659103 25.896767,156.437363 
	C26.111441,127.451599 26.166069,98.461533 25.837837,69.477898 
	C25.782372,64.579918 25.635382,59.171612 21.865875,54.587605 
	C28.033209,46.561054 34.508972,38.825550 41.601807,31.079212 
	C43.972401,31.183535 45.846695,30.941025 47.455639,31.484322 
	C51.466007,32.838505 53.099392,35.613873 53.088001,40.112808 
	C52.951668,93.955536 52.999954,147.798737 52.999954,201.882980 
	C52.357815,201.769211 51.733025,201.547607 51.121201,201.578949 
	C50.401352,201.615860 49.692753,201.872162 48.979275,202.033325 
	C37.377956,194.087677 27.874361,184.211075 21.042772,171.461975 
z"/>
<path fill="#15B8F0" opacity="1.000000" stroke="none" 
	d="
M49.161106,202.316833 
	C49.692753,201.872162 50.401352,201.615860 51.121201,201.578949 
	C51.733025,201.547607 52.357815,201.769211 52.999954,201.882980 
	C52.999954,147.798737 52.951668,93.955536 53.088001,40.112808 
	C53.099392,35.613873 51.466007,32.838505 47.455639,31.484322 
	C45.846695,30.941025 43.972401,31.183535 41.897141,30.948963 
	C47.474522,26.565802 53.373638,22.302055 59.843109,18.196325 
	C64.520607,17.197929 68.627739,16.041515 72.290627,15.010187 
	C71.839615,17.853657 71.097969,20.494595 71.058006,23.146111 
	C70.912109,32.825424 71.000305,42.508259 71.000305,52.003357 
	C72.738235,52.003357 74.867897,52.003357 76.998474,52.334595 
	C76.999191,53.107578 76.998993,53.549320 76.584747,53.993271 
	C74.794250,54.003452 73.417793,54.011429 71.736313,54.129784 
	C69.447769,53.744564 67.464249,53.248966 65.874443,52.851746 
	C66.238716,54.534458 66.612297,56.260151 66.990898,58.455360 
	C66.999428,95.606857 67.002937,132.288834 66.823814,169.128571 
	C67.125381,169.801468 67.609581,170.316620 68.329819,170.914917 
	C68.703926,171.091721 68.841988,171.185379 69.040955,171.596832 
	C70.366814,172.955841 71.631775,173.997055 72.928040,175.281128 
	C72.959343,175.523987 73.035988,176.007706 73.191071,176.285126 
	C74.573860,178.014771 75.801567,179.466995 76.868912,181.243057 
	C75.139397,183.612350 72.393021,185.561920 72.217216,187.720810 
	C71.641563,194.789627 72.001099,201.934601 72.001099,207.447205 
	C74.495232,210.007355 76.044083,211.597183 77.592934,213.187027 
	C75.160484,213.747543 73.157310,213.255295 71.133163,212.874390 
	C69.365936,212.541840 67.575104,212.334717 65.794701,212.072174 
	C60.310780,208.914886 54.826859,205.757614 49.161106,202.316833 
M68.586998,51.516933 
	C68.586998,51.516933 68.477600,51.582188 68.586998,51.516933 
z"/>
<path fill="#02A0E3" opacity="1.000000" stroke="none" 
	d="
M161.165756,14.898589 
	C174.236023,20.433987 184.910019,29.229862 194.367554,39.885944 
	C188.768234,39.591091 187.786957,42.323204 187.892166,47.190285 
	C188.196808,61.284782 188.010315,75.390129 187.986649,89.491173 
	C187.983749,91.212936 187.798386,92.934395 187.730377,94.096077 
	C183.681320,94.096077 180.323044,94.096077 176.628036,94.037460 
	C175.216507,93.615265 174.141693,93.251686 173.013824,92.552345 
	C168.999039,88.461967 165.037277,84.707359 161.020737,80.610626 
	C158.112183,77.512497 155.258392,74.756493 152.225143,71.782272 
	C152.073013,71.377678 152.100357,71.191307 152.481659,70.994415 
	C153.416153,70.411774 154.596069,69.650528 154.484467,69.296814 
	C153.372238,65.772095 152.046951,62.314602 151.252151,60.130543 
	C152.379547,56.914825 153.847290,54.616051 153.890335,52.290894 
	C154.122116,39.773426 153.999969,27.249407 153.999969,15.438531 
	C156.884460,15.221185 159.025116,15.059887 161.165756,14.898589 
z"/>
<path fill="#029ADE" opacity="1.000000" stroke="none" 
	d="
M176.964752,94.096077 
	C180.323044,94.096077 183.681320,94.096077 187.730377,94.096077 
	C187.798386,92.934395 187.983749,91.212936 187.986649,89.491173 
	C188.010315,75.390129 188.196808,61.284782 187.892166,47.190285 
	C187.786957,42.323204 188.768234,39.591091 194.475937,40.191467 
	C197.796844,43.777515 200.827621,47.510349 203.966003,51.945442 
	C205.736008,55.087284 207.398407,57.526863 209.060822,59.966450 
	C209.060806,59.966454 208.996658,59.988537 209.019379,60.276402 
	C209.398560,61.029602 209.755020,61.494938 210.111481,61.960274 
	C210.111481,61.960278 210.024445,61.972973 210.023651,62.292835 
	C210.645905,63.420681 211.268967,64.228661 211.892029,65.036652 
	C211.892029,65.036652 211.979584,65.073822 211.954758,65.447647 
	C211.467987,66.961197 211.006042,68.100914 210.542877,69.243668 
	C211.382477,69.657722 212.207901,70.064766 213.091217,70.500374 
	C212.665695,71.156288 212.471741,71.416313 212.318298,71.698372 
	C211.561615,73.089096 210.815659,74.485641 210.065918,75.880142 
	C210.475143,76.105423 210.884354,76.330704 211.293579,76.555984 
	C212.139709,75.466866 212.985825,74.377739 213.801971,73.327194 
	C214.986908,74.745697 215.933746,75.879150 216.880569,77.012596 
	C217.096878,77.275658 217.225067,77.576294 217.188690,78.534218 
	C217.453812,79.755943 217.795380,80.357956 218.136948,80.959976 
	C219.212692,85.180283 220.288452,89.400589 221.188171,94.418312 
	C220.113220,98.020592 219.214310,100.825462 218.208298,103.964539 
	C219.945984,102.613655 221.087708,101.726089 222.229446,100.838547 
	C222.229462,100.838562 222.188004,100.912758 222.117157,101.298584 
	C221.031387,106.157684 219.921219,110.612190 219.035065,115.110832 
	C218.445953,118.101562 219.948776,119.376511 222.918930,119.006363 
	C222.969131,119.458206 223.019348,119.910042 222.753265,120.877106 
	C222.026566,121.919693 221.273300,122.921028 221.254272,122.907249 
	C218.837173,121.158928 212.056396,121.371262 209.584473,122.932892 
	C208.335159,123.722137 206.553146,123.668167 204.742920,123.781570 
	C201.322205,120.702629 198.170563,117.837555 194.965149,114.638641 
	C192.295471,111.858284 189.679550,109.411766 187.000107,106.631897 
	C185.558609,104.935303 184.030502,103.690941 182.835968,102.182442 
	C180.769882,99.573303 178.910721,96.800323 176.964752,94.096077 
z"/>
<path fill="#02A8E9" opacity="1.000000" stroke="none" 
	d="
M160.946320,14.619272 
	C159.025116,15.059887 156.884460,15.221185 153.999969,15.438531 
	C153.999969,27.249407 154.122116,39.773426 153.890335,52.290894 
	C153.847290,54.616051 152.379547,56.914825 151.252151,60.130543 
	C152.046951,62.314602 153.372238,65.772095 154.484467,69.296814 
	C154.596069,69.650528 153.416153,70.411774 152.319260,70.694778 
	C144.035751,60.690567 133.779266,56.125580 121.490044,55.390419 
	C123.156090,53.988853 124.826958,52.953007 126.609764,51.847759 
	C124.731293,51.577885 123.022743,51.332420 122.001183,51.185654 
	C122.793915,48.181976 123.870567,45.906704 123.917465,43.610401 
	C124.113510,34.010105 123.943001,24.403028 124.021408,14.799372 
	C124.071495,8.663903 124.817482,8.145546 130.847794,7.930703 
	C132.982773,7.854640 135.089600,6.988667 137.209290,6.483315 
	C140.223801,7.249129 143.238297,8.014944 146.632294,8.763585 
	C151.583481,10.610926 156.155197,12.475439 160.946320,14.619272 
M128.587234,54.516644 
	C128.587234,54.516644 128.476471,54.582516 128.587234,54.516644 
z"/>
<path fill="#018FCB" opacity="1.000000" stroke="none" 
	d="
M219.982941,138.991852 
	C219.655518,140.739395 219.328094,142.486938 218.572754,144.472397 
	C215.648834,145.893311 213.152817,147.076294 210.407288,148.377533 
	C210.407288,147.459213 210.407288,146.468872 210.407288,145.396255 
	C205.833252,146.994385 201.610031,148.588928 197.309433,149.936447 
	C193.585205,151.103363 189.773209,151.990051 185.694931,153.149384 
	C177.240906,161.225464 167.403351,165.118149 156.142197,166.109512 
	C152.604980,166.420868 147.121155,167.033295 146.103348,169.192841 
	C143.443237,174.837051 139.309555,173.976318 134.759399,173.726318 
	C133.374084,173.643997 132.193207,173.820755 130.864670,174.223785 
	C130.142624,174.299927 129.568268,174.149841 128.699020,173.704987 
	C115.693459,173.410217 102.982780,173.410217 90.272095,173.410217 
	C90.281418,173.078033 90.290741,172.745865 90.300056,172.413681 
	C92.524590,172.031967 94.749115,171.650253 97.438675,171.195923 
	C104.856636,171.114532 111.851227,170.621429 118.752335,171.215103 
	C128.138443,172.022598 136.621750,169.727768 144.152267,164.590057 
	C147.450378,162.339874 151.419006,160.190842 153.167938,155.836426 
	C153.642059,155.591293 153.735321,155.352402 153.777542,154.807617 
	C153.950119,154.398926 153.984055,154.222046 154.247223,153.945038 
	C154.613892,153.555878 154.751297,153.266891 155.136841,152.787079 
	C155.907593,151.709259 156.430176,150.822250 157.094055,150.224182 
	C157.635117,151.432739 158.034897,152.352341 158.646225,153.758545 
	C159.987289,151.263260 160.758057,149.445236 160.961349,149.506622 
	C167.154694,151.376617 169.879852,144.842361 175.202728,143.752014 
	C182.686539,142.219009 189.661743,138.113358 196.787491,134.956726 
	C200.926956,133.123001 204.935349,130.993408 209.364258,129.003876 
	C210.633881,129.605453 211.687668,130.059158 212.423691,130.820206 
	C215.002594,133.486893 217.471970,136.259476 219.982941,138.991852 
z"/>
<path fill="#049EDE" opacity="1.000000" stroke="none" 
	d="
M195.343567,184.190338 
	C191.488617,188.733414 188.153885,193.884827 183.683212,197.707855 
	C169.047607,210.223267 152.195236,218.365784 132.360657,221.024200 
	C128.129898,219.797440 124.563423,218.898727 121.042297,217.633820 
	C121.430977,216.716110 121.644257,215.881699 122.137009,215.655136 
	C130.713898,211.711807 140.294113,209.503189 146.447754,201.414948 
	C146.538315,201.295898 146.742508,201.267242 146.886948,201.184647 
	C151.072983,198.791183 155.310471,196.480118 159.399628,193.931091 
	C160.222458,193.418167 160.481583,192.000916 161.435547,191.000610 
	C166.737091,190.231369 171.655121,189.691528 176.453354,188.616852 
	C179.986115,187.825623 184.237091,188.879288 186.284012,183.786469 
	C187.307816,181.239182 193.440521,181.971039 195.343567,184.190338 
z"/>
<path fill="#0297D8" opacity="1.000000" stroke="none" 
	d="
M195.658386,184.074234 
	C193.440521,181.971039 187.307816,181.239182 186.284012,183.786469 
	C184.237091,188.879288 179.986115,187.825623 176.453354,188.616852 
	C171.655121,189.691528 166.737091,190.231369 161.435913,190.602661 
	C161.139069,187.014130 161.850159,184.523499 165.695114,183.663025 
	C166.758179,183.425110 167.247849,180.625092 168.326599,178.835358 
	C172.166412,176.583481 177.538910,176.746918 178.000504,170.871552 
	C178.028717,170.512405 179.732834,170.323456 180.630737,169.985153 
	C181.987732,169.473831 183.589615,169.205963 184.619186,168.301590 
	C189.334900,164.159225 194.713242,161.953812 201.034851,162.284164 
	C201.374573,162.890549 201.679443,163.212769 201.984283,163.534973 
	C202.165909,163.325592 202.347519,163.116196 202.529144,162.906799 
	C202.019424,162.604538 201.509720,162.302277 201.147079,161.668030 
	C204.030685,159.517578 206.767212,157.699112 209.806168,155.679657 
	C210.616882,157.655777 211.340668,159.419968 212.064438,161.184174 
	C208.408951,169.982483 203.514053,177.905075 195.658386,184.074234 
z"/>
<path fill="#0DB4F0" opacity="1.000000" stroke="none" 
	d="
M66.046181,212.329895 
	C67.575104,212.334717 69.365936,212.541840 71.133163,212.874390 
	C73.157310,213.255295 75.160484,213.747543 77.592934,213.187027 
	C76.044083,211.597183 74.495232,210.007355 72.001099,207.447205 
	C72.001099,201.934601 71.641563,194.789627 72.217216,187.720810 
	C72.393021,185.561920 75.139397,183.612350 77.162735,181.402359 
	C79.710449,182.840042 81.803993,184.442276 84.048218,186.350433 
	C86.783340,189.112656 89.367790,191.568939 91.993324,194.347137 
	C92.693092,195.772461 93.351768,196.875854 93.959991,198.367599 
	C93.272919,203.230194 92.678726,207.711075 91.979568,212.175552 
	C91.684563,214.059189 91.168304,215.908173 90.755554,217.759735 
	C92.796776,218.009232 95.494377,218.338959 98.740982,218.735794 
	C97.499161,220.149429 96.767502,220.982315 96.035843,221.815201 
	C86.123116,218.739334 76.210388,215.663467 66.046181,212.329895 
z"/>
<path fill="#0293D2" opacity="1.000000" stroke="none" 
	d="
M201.147079,161.668030 
	C194.713242,161.953812 189.334900,164.159225 184.619186,168.301590 
	C183.589615,169.205963 181.987732,169.473831 180.630737,169.985153 
	C179.732834,170.323456 178.028717,170.512405 178.000504,170.871552 
	C177.538910,176.746918 172.166412,176.583481 167.927673,178.835175 
	C164.801834,179.666626 162.400925,180.333008 160.037323,180.637268 
	C163.752579,176.567429 167.429016,172.858170 171.116852,169.160309 
	C171.212860,169.064026 171.435745,169.056732 171.595612,169.067139 
	C175.056168,169.292572 176.533279,167.284103 177.514420,164.278717 
	C177.845306,163.265167 179.201904,162.144852 180.281067,161.892944 
	C185.187881,160.747513 186.397278,157.441849 186.000000,153.000610 
	C189.773209,151.990051 193.585205,151.103363 197.309433,149.936447 
	C201.610031,148.588928 205.833252,146.994385 210.407288,145.396255 
	C210.407288,146.468872 210.407288,147.459213 210.407288,148.377533 
	C213.152817,147.076294 215.648834,145.893311 218.408234,144.819000 
	C216.656967,150.199295 214.642303,155.470901 212.346039,160.963348 
	C211.340668,159.419968 210.616882,157.655777 209.806168,155.679657 
	C206.767212,157.699112 204.030685,159.517578 201.147079,161.668030 
z"/>
<path fill="#05AFED" opacity="1.000000" stroke="none" 
	d="
M96.455597,221.910187 
	C96.767502,220.982315 97.499161,220.149429 98.740982,218.735794 
	C95.494377,218.338959 92.796776,218.009232 90.755554,217.759735 
	C91.168304,215.908173 91.684563,214.059189 91.979568,212.175552 
	C92.678726,207.711075 93.272919,203.230194 94.266624,198.505295 
	C97.746880,200.841446 100.870049,203.428238 104.124557,206.314667 
	C105.167732,207.418945 106.079552,208.223587 107.138306,209.325195 
	C109.868553,212.414719 112.451866,215.207291 115.267761,218.280731 
	C118.409599,219.932037 121.318840,221.302505 124.228081,222.672974 
	C115.110497,222.450378 105.992920,222.227783 96.455597,221.910187 
z"/>
<path fill="#0397D8" opacity="1.000000" stroke="none" 
	d="
M220.112823,138.594696 
	C217.471970,136.259476 215.002594,133.486893 212.423691,130.820206 
	C211.687668,130.059158 210.633881,129.605453 209.309494,128.661560 
	C207.599457,126.873344 206.305725,125.434395 205.011993,123.995445 
	C206.553146,123.668167 208.335159,123.722137 209.584473,122.932892 
	C212.056396,121.371262 218.837173,121.158928 221.254272,122.907249 
	C221.273300,122.921028 222.026566,121.919693 222.657562,121.206924 
	C222.003937,125.608772 221.091003,130.189209 220.283783,134.788193 
	C220.089859,135.893005 220.247009,137.059448 220.112823,138.594696 
z"/>
<path fill="#0397D8" opacity="1.000000" stroke="none" 
	d="
M223.002014,118.544189 
	C219.948776,119.376511 218.445953,118.101562 219.035065,115.110832 
	C219.921219,110.612190 221.031387,106.157684 222.084656,101.271233 
	C222.443680,106.599373 222.764389,112.340698 223.002014,118.544189 
z"/>
<path fill="#F5FBFB" opacity="1.000000" stroke="none" 
	d="
M4.042461,126.194351 
	C4.646078,128.597885 5.210849,131.412308 5.490403,134.669525 
	C4.938910,135.446777 4.672634,135.781204 4.406359,136.115646 
	C4.909935,136.408081 5.413509,136.700516 5.917084,136.992950 
	C6.189800,137.788162 6.462516,138.583389 6.710124,139.694275 
	C1.967688,137.920929 0.481090,133.780350 2.796443,129.222931 
	C3.231355,128.366882 3.602854,127.478622 4.042461,126.194351 
z"/>
<path fill="#1299D5" opacity="1.000000" stroke="none" 
	d="
M216.878571,76.643257 
	C215.933746,75.879150 214.986908,74.745697 213.801971,73.327194 
	C212.985825,74.377739 212.139709,75.466866 211.293579,76.555984 
	C210.884354,76.330704 210.475143,76.105423 210.065918,75.880142 
	C210.815659,74.485641 211.561615,73.089096 212.318298,71.698372 
	C212.471741,71.416313 212.665695,71.156288 213.091217,70.500374 
	C212.207901,70.064766 211.382477,69.657722 210.542877,69.243668 
	C211.006042,68.100914 211.467987,66.961197 211.930359,65.488457 
	C213.579361,68.861603 215.227966,72.567764 216.878571,76.643257 
z"/>
<path fill="#01A0D3" opacity="1.000000" stroke="none" 
	d="
M124.643730,222.665054 
	C121.318840,221.302505 118.409599,219.932037 115.691963,218.280396 
	C117.588036,217.999466 119.292488,217.999725 120.996948,218.000000 
	C124.563423,218.898727 128.129898,219.797440 131.938324,221.039398 
	C129.806625,221.807480 127.433006,222.232300 124.643730,222.665054 
z"/>
<path fill="#0397D8" opacity="1.000000" stroke="none" 
	d="
M222.263855,100.425446 
	C221.087708,101.726089 219.945984,102.613655 218.208298,103.964539 
	C219.214310,100.825462 220.113220,98.020592 221.084839,94.795822 
	C221.537796,96.254738 221.918045,98.133553 222.263855,100.425446 
z"/>
<path fill="#1299D5" opacity="1.000000" stroke="none" 
	d="
M209.014633,59.619949 
	C207.398407,57.526863 205.736008,55.087284 204.054337,52.271675 
	C205.679520,54.354916 207.323990,56.814182 209.014633,59.619949 
z"/>
<path fill="#F5FBFB" opacity="1.000000" stroke="none" 
	d="
M6.924236,142.200592 
	C7.638256,143.358856 8.208200,144.838257 8.762051,146.664124 
	C5.959567,146.447586 5.509662,144.861389 6.924236,142.200592 
z"/>
<path fill="#1299D5" opacity="1.000000" stroke="none" 
	d="
M211.878952,64.723648 
	C211.268967,64.228661 210.645905,63.420681 210.050385,62.257927 
	C210.673920,62.738987 211.269897,63.574818 211.878952,64.723648 
z"/>
<path fill="#1299D5" opacity="1.000000" stroke="none" 
	d="
M218.127869,80.603828 
	C217.795380,80.357956 217.453812,79.755943 217.150421,78.779053 
	C217.498657,79.018677 217.808731,79.633179 218.127869,80.603828 
z"/>
<path fill="#1299D5" opacity="1.000000" stroke="none" 
	d="
M210.094284,61.657959 
	C209.755020,61.494938 209.398560,61.029602 209.041489,60.250656 
	C209.386292,60.409916 209.731689,60.882782 210.094284,61.657959 
z"/>
<path fill="#0DB5F0" opacity="1.000000" stroke="none" 
	d="
M76.997559,52.003357 
	C74.867897,52.003357 72.738235,52.003357 71.000305,52.003357 
	C71.000305,42.508259 70.912109,32.825424 71.058006,23.146111 
	C71.097969,20.494595 71.839615,17.853657 72.290627,15.010187 
	C68.627739,16.041515 64.520607,17.197929 60.188919,18.137978 
	C67.099335,14.715585 74.234291,11.509560 81.682030,8.105122 
	C83.423714,7.666731 84.852608,7.426754 86.728729,7.549136 
	C87.783936,9.866680 88.894005,11.815619 88.918427,13.778062 
	C89.076874,26.517122 88.999153,39.259117 88.538254,52.000145 
	C84.384346,52.001209 80.690948,52.002281 76.997559,52.003357 
z"/>
<path fill="#F5FBFB" opacity="1.000000" stroke="none" 
	d="
M6.503700,85.996201 
	C6.617670,87.423920 6.339199,88.852158 5.942387,90.629532 
	C4.631974,89.689117 3.439902,88.399567 2.247830,87.110016 
	C3.535640,86.738922 4.823450,86.367828 6.503700,85.996201 
z"/>
<path fill="#1CBDF2" opacity="1.000000" stroke="none" 
	d="
M21.223530,54.692600 
	C21.347134,56.446041 21.215595,58.281391 21.084057,60.116745 
	C20.787548,60.108074 20.491039,60.099403 20.194529,60.090733 
	C20.135040,58.998642 20.075550,57.906548 20.017279,56.452122 
	C20.335127,55.651360 20.651758,55.212936 21.223530,54.692600 
z"/>
<path fill="#FCFEFE" opacity="1.000000" stroke="none" 
	d="
M5.945714,136.659210 
	C5.413509,136.700516 4.909935,136.408081 4.406359,136.115646 
	C4.672634,135.781204 4.938910,135.446777 5.481987,135.062469 
	C5.830641,135.450226 5.902493,135.887848 5.945714,136.659210 
z"/>
<path fill="#02AEEE" opacity="1.000000" stroke="none" 
	d="
M136.867462,6.308187 
	C135.089600,6.988667 132.982773,7.854640 130.847794,7.930703 
	C124.817482,8.145546 124.071495,8.663903 124.021408,14.799372 
	C123.943001,24.403028 124.113510,34.010105 123.917465,43.610401 
	C123.870567,45.906704 122.793915,48.181976 122.001183,51.185654 
	C123.022743,51.332420 124.731293,51.577885 126.609764,51.847759 
	C124.826958,52.953007 123.156090,53.988853 121.361786,55.340797 
	C121.238350,55.656887 121.075401,55.438423 120.627213,55.287731 
	C115.460991,55.081352 110.742950,55.025665 106.280075,54.696190 
	C108.173660,54.092255 109.812073,53.762100 111.450493,53.431946 
	C111.441956,52.954933 111.433418,52.477924 111.424881,52.000916 
	C108.949615,52.000916 106.474350,52.000916 103.999542,52.000458 
	C104.000000,52.000000 103.999084,52.000763 103.989365,51.577629 
	C103.653938,49.375664 103.060539,47.598972 103.046310,45.817646 
	C102.958870,34.872105 102.966766,23.925312 103.031029,12.979450 
	C103.044525,10.679336 103.425369,8.381378 103.598709,6.497813 
	C101.548622,6.074396 99.277130,5.605250 97.005638,5.136106 
	C110.244377,2.875598 123.408546,3.571323 136.867462,6.308187 
z"/>
<path fill="#07B2EF" opacity="1.000000" stroke="none" 
	d="
M96.609634,5.088526 
	C99.277130,5.605250 101.548622,6.074396 103.598709,6.497813 
	C103.425369,8.381378 103.044525,10.679336 103.031029,12.979450 
	C102.966766,23.925312 102.958870,34.872105 103.046310,45.817646 
	C103.060539,47.598972 103.653938,49.375664 103.523346,51.577934 
	C98.377625,52.000961 93.688202,52.000557 88.998779,52.000153 
	C88.999153,39.259117 89.076874,26.517122 88.918427,13.778062 
	C88.894005,11.815619 87.783936,9.866680 87.093254,7.545657 
	C90.078255,6.466861 93.145943,5.753903 96.609634,5.088526 
z"/>
<path fill="#FDFEFE" opacity="1.000000" stroke="none" 
	d="
M154.017975,154.045181 
	C153.984055,154.222046 153.950119,154.398926 153.619019,154.912537 
	C153.135437,155.434845 153.020432,155.657318 152.976807,155.916718 
	C151.419006,160.190842 147.450378,162.339874 144.152267,164.590057 
	C136.621750,169.727768 128.138443,172.022598 118.752335,171.215103 
	C111.851227,170.621429 104.856636,171.114532 96.978539,171.108032 
	C87.028938,171.154861 78.004494,171.216949 68.980057,171.279053 
	C68.841988,171.185379 68.703926,171.091721 68.339432,170.598251 
	C68.044632,169.784241 67.976242,169.370056 67.972733,168.493896 
	C67.987274,131.033417 67.936928,94.034897 68.173050,56.710110 
	C79.564995,56.242310 90.671013,56.132229 101.775772,55.947151 
	C108.210022,55.839920 114.642258,55.612022 121.075401,55.438423 
	C121.075401,55.438423 121.238350,55.656887 121.366608,55.706509 
	C133.779266,56.125580 144.035751,60.690567 151.965302,70.705307 
	C152.100357,71.191307 152.073013,71.377678 152.361710,72.105499 
	C156.706497,80.673805 156.588943,88.804596 153.099030,97.310127 
	C149.832169,101.367661 146.754868,105.130241 143.361145,109.025925 
	C143.724228,110.374748 144.403717,111.590462 145.060242,113.256348 
	C144.975311,121.156975 144.975311,121.156975 153.502960,121.037521 
	C154.199539,122.073181 154.629700,122.966751 154.984818,124.227448 
	C154.110153,126.613655 153.310532,128.632736 152.018356,131.895538 
	C153.914261,130.442566 154.578705,129.933350 155.243164,129.424133 
	C155.625656,129.652313 156.008148,129.880493 156.390656,130.108688 
	C155.657196,131.783051 154.437103,133.417221 154.294754,135.140411 
	C154.024261,138.414413 152.327820,141.907135 155.167145,145.253250 
	C156.220062,146.004868 157.106567,146.502014 157.921921,147.314911 
	C157.551422,148.398849 157.252090,149.167053 156.952759,149.935242 
	C156.430176,150.822250 155.907593,151.709259 154.931671,152.910095 
	C154.225784,153.442139 154.072327,153.715881 154.017975,154.045181 
M117.748367,144.948639 
	C125.916115,143.043213 129.096176,137.603287 126.116043,130.273834 
	C124.321655,125.525352 120.258904,124.322639 115.854111,124.055664 
	C112.236603,123.836411 108.588997,124.113770 104.075989,124.020378 
	C102.488106,124.020378 100.900215,124.020378 98.876518,124.020378 
	C98.876518,128.868820 98.751801,133.258469 98.925911,137.636246 
	C99.021767,140.046143 99.620132,142.436020 100.918144,144.980164 
	C106.275627,144.932953 111.633118,144.885742 117.748367,144.948639 
M106.544830,100.662033 
	C110.679497,100.419418 114.908066,100.635208 118.923935,99.812622 
	C123.455765,98.884338 125.696747,94.848427 125.384186,89.884087 
	C125.079948,85.052025 122.133911,81.297729 117.543610,81.022644 
	C111.463440,80.658279 105.344978,80.932877 99.236305,80.932877 
	C99.236305,87.708618 99.236305,94.061829 99.236305,100.663857 
	C101.630562,100.663857 103.608200,100.663857 106.544830,100.662033 
z"/>
<path fill="#068EC1" opacity="1.000000" stroke="none" 
	d="
M91.952240,194.025223 
	C89.367790,191.568939 86.783340,189.112656 84.445358,186.329910 
	C90.904495,185.186386 88.150139,179.899979 90.011497,176.007706 
	C83.943977,176.007706 78.489983,176.007706 73.035988,176.007706 
	C73.035988,176.007706 72.959343,175.523987 73.388939,175.266418 
	C81.553345,174.677032 89.288162,174.345215 97.312729,174.307770 
	C102.401245,174.735382 107.200012,174.868607 111.959152,175.356735 
	C108.014549,178.939545 104.067444,182.118530 100.229759,185.424545 
	C99.047447,186.443069 97.306053,187.805069 97.301537,189.015320 
	C97.287033,192.902191 94.807831,193.520844 91.952240,194.025223 
M94.518654,176.994370 
	C95.017563,176.880325 95.516472,176.766281 96.015381,176.652252 
	C95.928032,176.422653 95.840683,176.193069 95.753334,175.963486 
	C95.142113,176.303040 94.530891,176.642593 94.518654,176.994370 
z"/>
<path fill="#1590B9" opacity="1.000000" stroke="none" 
	d="
M97.022972,174.013397 
	C89.288162,174.345215 81.553345,174.677032 73.357635,175.023560 
	C71.631775,173.997055 70.366814,172.955841 69.040955,171.596832 
	C78.004494,171.216949 87.028938,171.154861 96.513512,171.180649 
	C94.749115,171.650253 92.524590,172.031967 90.300056,172.413681 
	C90.290741,172.745865 90.281418,173.078033 90.272095,173.410217 
	C102.982780,173.410217 115.693459,173.410217 128.325287,173.702469 
	C127.498604,173.996689 126.750786,173.998642 125.585831,173.996582 
	C123.778481,173.995239 122.388275,173.997925 120.529648,173.998123 
	C112.381805,174.001556 104.702393,174.007477 97.022972,174.013397 
z"/>
<path fill="#05B0F8" opacity="1.000000" stroke="none" 
	d="
M67.886581,57.036366 
	C67.936928,94.034897 67.987274,131.033417 67.747452,168.501923 
	C67.457283,168.971878 67.006447,168.970810 67.006447,168.970810 
	C67.002937,132.288834 66.999428,95.606857 67.087082,58.251244 
	C67.356918,57.322021 67.593025,57.141605 67.886581,57.036366 
z"/>
<path fill="#088DB9" opacity="1.000000" stroke="none" 
	d="
M73.191071,176.285126 
	C78.489983,176.007706 83.943977,176.007706 90.011497,176.007706 
	C88.150139,179.899979 90.904495,185.186386 84.294678,186.023987 
	C81.803993,184.442276 79.710449,182.840042 77.323097,181.078506 
	C75.801567,179.466995 74.573860,178.014771 73.191071,176.285126 
z"/>
<path fill="#1DB7E5" opacity="1.000000" stroke="none" 
	d="
M68.173050,56.710110 
	C67.593025,57.141605 67.356918,57.322021 67.082062,57.781723 
	C66.612297,56.260151 66.238716,54.534458 65.874443,52.851746 
	C67.464249,53.248966 69.447769,53.744564 72.024582,54.424889 
	C83.753555,54.729736 94.889236,54.849857 106.024910,54.969978 
	C110.742950,55.025665 115.460991,55.081352 120.627213,55.287731 
	C114.642258,55.612022 108.210022,55.839920 101.775772,55.947151 
	C90.671013,56.132229 79.564995,56.242310 68.173050,56.710110 
z"/>
<path fill="#0FB0F1" opacity="1.000000" stroke="none" 
	d="
M88.538254,52.000145 
	C93.688202,52.000557 98.377625,52.000961 103.533066,52.001064 
	C103.999084,52.000763 104.000000,52.000000 103.908569,52.396721 
	C102.326263,53.194988 100.840469,53.919891 99.343636,53.943466 
	C91.896950,54.060741 84.447357,53.993404 76.998795,53.991066 
	C76.998993,53.549320 76.999191,53.107578 76.998474,52.334595 
	C80.690948,52.002281 84.384346,52.001209 88.538254,52.000145 
z"/>
<path fill="#07B2EF" opacity="1.000000" stroke="none" 
	d="
M76.584747,53.993271 
	C84.447357,53.993404 91.896950,54.060741 99.343636,53.943466 
	C100.840469,53.919891 102.326263,53.194988 103.908112,52.397179 
	C106.474350,52.000916 108.949615,52.000916 111.424881,52.000916 
	C111.433418,52.477924 111.441956,52.954933 111.450493,53.431946 
	C109.812073,53.762100 108.173660,54.092255 106.280075,54.696194 
	C94.889236,54.849857 83.753555,54.729736 72.329605,54.314514 
	C73.417793,54.011429 74.794250,54.003452 76.584747,53.993271 
z"/>
<path fill="#1DB7E5" opacity="1.000000" stroke="none" 
	d="
M66.823814,169.128571 
	C67.006447,168.970810 67.457283,168.971878 67.682571,168.963867 
	C67.976242,169.370056 68.044632,169.784241 68.103394,170.515106 
	C67.609581,170.316620 67.125381,169.801468 66.823814,169.128571 
z"/>
<path fill="#0DB5F0" opacity="1.000000" stroke="none" 
	d="
M68.532303,51.549561 
	C68.477600,51.582188 68.586998,51.516933 68.532303,51.549561 
z"/>
<path fill="#0381B6" opacity="1.000000" stroke="none" 
	d="
M145.083191,112.806175 
	C144.403717,111.590462 143.724228,110.374748 143.730560,109.058060 
	C148.032013,110.688416 151.478546,111.967300 152.609848,106.204079 
	C152.680923,105.841965 153.289001,105.472473 153.723267,105.311829 
	C158.234436,103.643059 162.689529,101.763916 167.305191,100.454170 
	C171.348831,99.306763 173.812119,97.448677 173.066879,92.888107 
	C174.141693,93.251686 175.216507,93.615265 176.628036,94.037460 
	C178.910721,96.800323 180.769882,99.573303 182.835968,102.182442 
	C184.030502,103.690941 185.558609,104.935303 186.706665,106.872650 
	C185.767395,108.269974 185.019440,109.838066 184.354507,109.803612 
	C175.718506,109.356186 170.400085,117.173630 162.496613,118.480957 
	C161.943878,118.572388 161.408707,119.648705 161.130920,120.369392 
	C160.014572,123.265396 159.002762,126.201691 157.681396,128.912262 
	C156.626923,127.087715 155.843384,125.474022 155.059845,123.860321 
	C154.629700,122.966751 154.199539,122.073181 153.427490,120.699944 
	C150.418121,117.748909 147.750656,115.277542 145.083191,112.806175 
M157.301804,116.917747 
	C157.114517,117.810318 156.927216,118.702881 156.739929,119.595444 
	C157.680634,119.269073 158.621353,118.942703 159.562057,118.616341 
	C159.015076,117.939758 158.468109,117.263184 157.301804,116.917747 
z"/>
<path fill="#047DAF" opacity="1.000000" stroke="none" 
	d="
M173.013824,92.552345 
	C173.812119,97.448677 171.348831,99.306763 167.305191,100.454170 
	C162.689529,101.763916 158.234436,103.643059 153.723267,105.311829 
	C153.289001,105.472473 152.680923,105.841965 152.609848,106.204079 
	C151.478546,111.967300 148.032013,110.688416 144.046967,108.924942 
	C146.754868,105.130241 149.832169,101.367661 153.454773,97.238663 
	C154.973373,94.630196 155.946686,92.388161 156.919983,90.146126 
	C158.235870,89.427322 159.438782,88.364929 159.898056,87.043983 
	C160.570190,85.110802 160.709259,82.992287 161.075516,80.952751 
	C165.037277,84.707359 168.999039,88.461967 173.013824,92.552345 
z"/>
<path fill="#0A77A8" opacity="1.000000" stroke="none" 
	d="
M161.020737,80.610626 
	C160.709259,82.992287 160.570190,85.110802 159.898056,87.043983 
	C159.438782,88.364929 158.235870,89.427322 156.919983,90.146126 
	C155.946686,92.388161 154.973373,94.630196 153.644333,96.943710 
	C156.588943,88.804596 156.706497,80.673805 152.541183,72.323715 
	C155.258392,74.756493 158.112183,77.512497 161.020737,80.610626 
z"/>
<path fill="#0186BE" opacity="1.000000" stroke="none" 
	d="
M157.952332,129.123093 
	C159.002762,126.201691 160.014572,123.265396 161.130920,120.369392 
	C161.408707,119.648705 161.943878,118.572388 162.496613,118.480957 
	C170.400085,117.173630 175.718506,109.356186 184.354507,109.803612 
	C185.019440,109.838066 185.767395,108.269974 186.770203,107.206001 
	C189.679550,109.411766 192.295471,111.858284 194.964462,115.026718 
	C195.312317,117.175095 195.607101,118.601555 195.781250,119.444252 
	C189.661621,126.556999 178.277679,125.449272 174.365784,135.021515 
	C174.261368,135.277084 173.868576,135.457642 173.572418,135.585587 
	C168.706070,137.687881 164.941376,142.290054 158.977509,141.556702 
	C158.605164,137.112823 158.278732,133.117966 157.952332,129.123093 
z"/>
<path fill="#008BC7" opacity="1.000000" stroke="none" 
	d="
M159.023453,142.005692 
	C164.941376,142.290054 168.706070,137.687881 173.572418,135.585587 
	C173.868576,135.457642 174.261368,135.277084 174.365784,135.021515 
	C178.277679,125.449272 189.661621,126.556999 195.781250,119.444252 
	C195.607101,118.601555 195.312317,117.175095 195.018219,115.360550 
	C198.170563,117.837555 201.322205,120.702629 204.742920,123.781570 
	C206.305725,125.434395 207.599457,126.873344 208.947968,128.654633 
	C204.935349,130.993408 200.926956,133.123001 196.787491,134.956726 
	C189.661743,138.113358 182.686539,142.219009 175.202728,143.752014 
	C169.879852,144.842361 167.154694,151.376617 160.961349,149.506622 
	C160.758057,149.445236 159.987289,151.263260 158.646225,153.758545 
	C158.034897,152.352341 157.635117,151.432739 157.094055,150.224182 
	C157.252090,149.167053 157.551422,148.398849 158.207428,147.191696 
	C158.654175,146.165100 158.744232,145.577469 158.896912,144.642929 
	C158.856949,143.845810 158.754379,143.395584 158.709534,142.696533 
	C158.852661,142.300354 158.938065,142.153015 159.023453,142.005692 
z"/>
<path fill="#02AEEE" opacity="1.000000" stroke="none" 
	d="
M128.531860,54.549580 
	C128.476471,54.582516 128.587234,54.516644 128.531860,54.549580 
z"/>
<path fill="#0095CF" opacity="1.000000" stroke="none" 
	d="
M126.002975,174.000610 
	C126.750786,173.998642 127.498604,173.996689 128.620148,173.997238 
	C129.568268,174.149841 130.142624,174.299927 131.260071,174.220886 
	C132.856720,173.989624 133.910294,173.987518 134.963867,173.985413 
	C139.309555,173.976318 143.443237,174.837051 146.103348,169.192841 
	C147.121155,167.033295 152.604980,166.420868 156.142197,166.109512 
	C167.403351,165.118149 177.240906,161.225464 185.694931,153.149384 
	C186.397278,157.441849 185.187881,160.747513 180.281067,161.892944 
	C179.201904,162.144852 177.845306,163.265167 177.514420,164.278717 
	C176.533279,167.284103 175.056168,169.292572 171.595612,169.067139 
	C171.435745,169.056732 171.212860,169.064026 171.116852,169.160309 
	C167.429016,172.858170 163.752579,176.567429 159.824112,180.920166 
	C155.111298,183.831650 149.277863,185.038803 146.513428,188.617004 
	C142.532516,193.769760 137.436539,193.748993 132.396149,194.996536 
	C126.439903,196.470779 119.651115,195.223007 114.874176,200.490494 
	C112.272224,203.359665 109.620598,206.183792 106.991371,209.028229 
	C106.079552,208.223587 105.167732,207.418945 104.290306,205.934021 
	C104.549820,203.132278 105.020905,201.002014 104.945206,198.891342 
	C104.815964,195.287827 105.247208,192.554047 109.905998,192.884384 
	C110.808083,192.948334 112.470833,192.004242 112.626923,191.277039 
	C113.573746,186.866043 116.890373,186.568207 120.451263,185.838882 
	C126.550858,184.589584 128.763931,179.470810 126.002975,174.000610 
z"/>
<path fill="#1590B9" opacity="1.000000" stroke="none" 
	d="
M134.759399,173.726318 
	C133.910294,173.987518 132.856720,173.989624 131.407745,173.994629 
	C132.193207,173.820755 133.374084,173.643997 134.759399,173.726318 
z"/>
<path fill="#F1F7F9" opacity="1.000000" stroke="none" 
	d="
M154.247223,153.945038 
	C154.072327,153.715881 154.225784,153.442139 154.683502,153.100922 
	C154.751297,153.266891 154.613892,153.555878 154.247223,153.945038 
z"/>
<path fill="#F1F7F9" opacity="1.000000" stroke="none" 
	d="
M153.167938,155.836426 
	C153.020432,155.657318 153.135437,155.434845 153.480362,155.144379 
	C153.735321,155.352402 153.642059,155.591293 153.167938,155.836426 
z"/>
<path fill="#019AD5" opacity="1.000000" stroke="none" 
	d="
M107.138306,209.325195 
	C109.620598,206.183792 112.272224,203.359665 114.874176,200.490494 
	C119.651115,195.223007 126.439903,196.470779 132.396149,194.996536 
	C137.436539,193.748993 142.532516,193.769760 146.513428,188.617004 
	C149.277863,185.038803 155.111298,183.831650 159.786789,181.282288 
	C162.400925,180.333008 164.801834,179.666626 167.601685,179.000427 
	C167.247849,180.625092 166.758179,183.425110 165.695114,183.663025 
	C161.850159,184.523499 161.139069,187.014130 161.001007,190.602661 
	C160.481583,192.000916 160.222458,193.418167 159.399628,193.931091 
	C155.310471,196.480118 151.072983,198.791183 146.886948,201.184647 
	C146.742508,201.267242 146.538315,201.295898 146.447754,201.414948 
	C140.294113,209.503189 130.713898,211.711807 122.137009,215.655136 
	C121.644257,215.881699 121.430977,216.716110 121.042297,217.633820 
	C119.292488,217.999725 117.588036,217.999466 115.459381,217.999527 
	C112.451866,215.207291 109.868553,212.414719 107.138306,209.325195 
z"/>
<path fill="#0293D2" opacity="1.000000" stroke="none" 
	d="
M201.034851,162.284164 
	C201.509720,162.302277 202.019424,162.604538 202.529144,162.906799 
	C202.347519,163.116196 202.165909,163.325592 201.984283,163.534973 
	C201.679443,163.212769 201.374573,162.890549 201.034851,162.284164 
z"/>
<path fill="#0392C7" opacity="1.000000" stroke="none" 
	d="
M125.585831,173.996582 
	C128.763931,179.470810 126.550858,184.589584 120.451263,185.838882 
	C116.890373,186.568207 113.573746,186.866043 112.626923,191.277039 
	C112.470833,192.004242 110.808083,192.948334 109.905998,192.884384 
	C105.247208,192.554047 104.815964,195.287827 104.945206,198.891342 
	C105.020905,201.002014 104.549820,203.132278 104.158951,205.634384 
	C100.870049,203.428238 97.746880,200.841446 94.317078,198.116959 
	C93.351768,196.875854 92.693092,195.772461 91.993324,194.347137 
	C94.807831,193.520844 97.287033,192.902191 97.301537,189.015320 
	C97.306053,187.805069 99.047447,186.443069 100.229759,185.424545 
	C104.067444,182.118530 108.014549,178.939545 112.398674,175.356079 
	C115.584572,174.667206 118.291328,174.333908 120.998077,174.000610 
	C122.388275,173.997925 123.778481,173.995239 125.585831,173.996582 
z"/>
<path fill="#08749E" opacity="1.000000" stroke="none" 
	d="
M106.065338,100.662949 
	C103.608200,100.663857 101.630562,100.663857 99.236305,100.663857 
	C99.236305,94.061829 99.236305,87.708618 99.236305,80.932877 
	C105.344978,80.932877 111.463440,80.658279 117.543610,81.022644 
	C122.133911,81.297729 125.079948,85.052025 125.384186,89.884087 
	C125.696747,94.848427 123.455765,98.884338 118.923935,99.812622 
	C114.908066,100.635208 110.679497,100.419418 106.065338,100.662949 
z"/>
<path fill="#0381B0" opacity="1.000000" stroke="none" 
	d="
M104.954727,124.171005 
	C108.588997,124.113770 112.236603,123.836411 115.854111,124.055664 
	C120.258904,124.322639 124.321655,125.525352 125.616577,130.637039 
	C123.781479,131.184311 122.445839,131.368393 122.245834,131.395950 
	C121.866112,134.254868 122.257584,136.731186 121.218376,137.754257 
	C119.929176,139.023407 117.455467,139.089325 115.499458,139.673187 
	C116.020004,141.476379 116.505302,143.157455 116.990601,144.838531 
	C111.633118,144.885742 106.275627,144.932953 100.456619,144.449921 
	C99.995087,137.862503 99.995087,131.805298 99.995087,125.803001 
	C101.946075,125.161018 103.450401,124.666016 104.954727,124.171005 
M113.411446,141.482147 
	C113.411446,141.482147 113.523369,141.414948 113.411446,141.482147 
z"/>
<path fill="#0D88B8" opacity="1.000000" stroke="none" 
	d="
M117.369484,144.893585 
	C116.505302,143.157455 116.020004,141.476379 115.499458,139.673187 
	C117.455467,139.089325 119.929176,139.023407 121.218376,137.754257 
	C122.257584,136.731186 121.866112,134.254868 122.245834,131.395950 
	C122.445839,131.368393 123.781479,131.184311 125.512352,130.995728 
	C129.096176,137.603287 125.916115,143.043213 117.369484,144.893585 
z"/>
<path fill="#F1F7F9" opacity="1.000000" stroke="none" 
	d="
M158.977509,141.556702 
	C158.938065,142.153015 158.852661,142.300354 158.427429,142.493713 
	C157.474533,140.851425 156.861465,139.163147 156.248383,137.474854 
	C155.831848,137.503159 155.415314,137.531448 154.998779,137.559753 
	C154.998779,140.040237 154.998779,142.520737 154.999390,145.000610 
	C155.000000,145.000000 155.000748,144.998779 155.000748,144.998779 
	C152.327820,141.907135 154.024261,138.414413 154.294754,135.140411 
	C154.437103,133.417221 155.657196,131.783051 156.390656,130.108688 
	C156.008148,129.880493 155.625656,129.652313 155.243164,129.424133 
	C154.578705,129.933350 153.914261,130.442566 152.018356,131.895538 
	C153.310532,128.632736 154.110153,126.613655 154.984802,124.227448 
	C155.843384,125.474022 156.626923,127.087715 157.681396,128.912262 
	C158.278732,133.117966 158.605164,137.112823 158.977509,141.556702 
z"/>
<path fill="#EEF8F8" opacity="1.000000" stroke="none" 
	d="
M145.060242,113.256348 
	C147.750656,115.277542 150.418121,117.748909 153.161072,120.557846 
	C144.975311,121.156975 144.975311,121.156975 145.060242,113.256348 
z"/>
<path fill="#067799" opacity="1.000000" stroke="none" 
	d="
M104.515358,124.095695 
	C103.450401,124.666016 101.946075,125.161018 99.995087,125.803001 
	C99.995087,131.805298 99.995087,137.862503 99.993515,144.377319 
	C99.620132,142.436020 99.021767,140.046143 98.925911,137.636246 
	C98.751801,133.258469 98.876518,128.868820 98.876518,124.020378 
	C100.900215,124.020378 102.488106,124.020378 104.515358,124.095695 
z"/>
<path fill="#F1F7F9" opacity="1.000000" stroke="none" 
	d="
M158.834290,144.989838 
	C158.744232,145.577469 158.654175,146.165100 158.278595,146.875946 
	C157.106567,146.502014 156.220062,146.004868 155.167145,145.253250 
	C155.000748,144.998779 155.000000,145.000000 155.382996,144.999603 
	C156.788757,144.996094 157.811523,144.992966 158.834290,144.989838 
z"/>
<path fill="#0090CE" opacity="1.000000" stroke="none" 
	d="
M120.529648,173.998123 
	C118.291328,174.333908 115.584572,174.667206 112.438301,175.001175 
	C107.200012,174.868607 102.401245,174.735382 97.312729,174.307770 
	C104.702393,174.007477 112.381805,174.001556 120.529648,173.998123 
z"/>
<path fill="#088DB9" opacity="1.000000" stroke="none" 
	d="
M94.219162,176.988251 
	C94.530891,176.642593 95.142113,176.303040 95.753334,175.963486 
	C95.840683,176.193069 95.928032,176.422653 96.015381,176.652252 
	C95.516472,176.766281 95.017563,176.880325 94.219162,176.988251 
z"/>
<path fill="#0186BE" opacity="1.000000" stroke="none" 
	d="
M157.611465,116.752174 
	C158.468109,117.263184 159.015076,117.939758 159.562057,118.616333 
	C158.621353,118.942703 157.680634,119.269073 156.739929,119.595444 
	C156.927216,118.702881 157.114517,117.810318 157.611465,116.752174 
z"/>
<path fill="#FDFEFE" opacity="1.000000" stroke="none" 
	d="
M158.896912,144.642929 
	C157.811523,144.992966 156.788757,144.996094 155.382385,145.000214 
	C154.998779,142.520737 154.998779,140.040237 154.998779,137.559753 
	C155.415314,137.531448 155.831848,137.503159 156.248383,137.474854 
	C156.861465,139.163147 157.474533,140.851425 158.369720,142.742554 
	C158.754379,143.395584 158.856949,143.845810 158.896912,144.642929 
z"/>
<path fill="#0D88B8" opacity="1.000000" stroke="none" 
	d="
M113.467407,141.448547 
	C113.523369,141.414948 113.411446,141.482147 113.467407,141.448547 
z"/>
</svg>